<svg xmlns="http://www.w3.org/2000/svg" width="23.155" height="25.728" viewBox="0 0 23.155 25.728">
  <path id="Icon_material-date-range" data-name="Icon material-date-range" d="M12.218,14.578H9.646V17.15h2.573Zm5.146,0H14.791V17.15h2.573Zm5.146,0H19.937V17.15h2.573Zm2.573-9H23.8V3H21.223V5.573H10.932V3H8.359V5.573H7.073a2.561,2.561,0,0,0-2.56,2.573L4.5,26.155a2.572,2.572,0,0,0,2.573,2.573H25.082a2.58,2.58,0,0,0,2.573-2.573V8.146A2.58,2.58,0,0,0,25.082,5.573Zm0,20.582H7.073V12H25.082Z" transform="translate(-4.5 -3)" fill="#5e9af8"/>
</svg>
