<svg xmlns="http://www.w3.org/2000/svg" width="23.342" height="25.935" viewBox="0 0 23.342 25.935">
  <path id="Icon_material-date-range" data-name="Icon material-date-range" d="M12.281,14.671H9.687v2.594h2.594Zm5.187,0H14.874v2.594h2.594Zm5.187,0H20.061v2.594h2.594Zm2.594-9.077h-1.3V3H21.358V5.594H10.984V3H8.39V5.594h-1.3A2.582,2.582,0,0,0,4.513,8.187L4.5,26.342a2.593,2.593,0,0,0,2.594,2.594H25.248a2.6,2.6,0,0,0,2.594-2.594V8.187A2.6,2.6,0,0,0,25.248,5.594Zm0,20.748H7.094V12.077H25.248Z" transform="translate(-4.5 -3)" fill="#5e9af8"/>
</svg>
