<svg xmlns="http://www.w3.org/2000/svg" width="20.238" height="20.238" viewBox="0 0 20.238 20.238">
  <path id="building" d="M9.276,0H2.53A2.53,2.53,0,0,0,0,2.53V20.238H11.805V2.53A2.53,2.53,0,0,0,9.276,0ZM5.059,16.021H2.53V14.335h2.53Zm0-3.373H2.53V10.962h2.53Zm0-3.373H2.53V7.589h2.53Zm0-3.373H2.53V4.216h2.53ZM9.276,16.021H6.746V14.335h2.53Zm0-3.373H6.746V10.962h2.53Zm0-3.373H6.746V7.589h2.53Zm0-3.373H6.746V4.216h2.53Zm8.432-1.686H13.492V20.238h6.746V6.746A2.53,2.53,0,0,0,17.708,4.216Zm0,11.805H16.021V14.335h1.686Zm0-3.373H16.021V10.962h1.686Zm0-3.373H16.021V7.589h1.686Z" fill="#8e869c"/>
</svg>
