<svg xmlns="http://www.w3.org/2000/svg" width="18.435" height="20.483" viewBox="0 0 18.435 20.483">
  <path id="Icon_material-date-range" data-name="Icon material-date-range" d="M10.645,12.218H8.6v2.048h2.048Zm4.1,0H12.693v2.048h2.048Zm4.1,0H16.79v2.048h2.048Zm2.048-7.169H19.863V3H17.814V5.048H9.621V3H7.573V5.048H6.548A2.039,2.039,0,0,0,4.51,7.1L4.5,21.435a2.048,2.048,0,0,0,2.048,2.048H20.887a2.054,2.054,0,0,0,2.048-2.048V7.1A2.054,2.054,0,0,0,20.887,5.048Zm0,16.387H6.548V10.169H20.887Z" transform="translate(-4.5 -3)" fill="#f9342e"/>
</svg>
