<svg xmlns="http://www.w3.org/2000/svg" width="16.951" height="16.95" viewBox="0 0 16.951 16.95">
  <path id="Icon_ionic-ios-call" data-name="Icon ionic-ios-call" d="M20.952,17.775a14.238,14.238,0,0,0-2.974-1.99c-.891-.428-1.218-.419-1.849.035-.525.379-.865.733-1.469.6a8.766,8.766,0,0,1-2.952-2.184,8.7,8.7,0,0,1-2.184-2.952c-.128-.609.225-.944.6-1.469.455-.631.468-.958.035-1.849a13.956,13.956,0,0,0-1.99-2.974c-.649-.649-.794-.507-1.152-.379a6.554,6.554,0,0,0-1.055.56A3.182,3.182,0,0,0,4.695,6.509c-.252.543-.543,1.553.94,4.192a23.392,23.392,0,0,0,4.113,5.485h0l0,0,0,0h0a23.483,23.483,0,0,0,5.485,4.113c2.639,1.483,3.649,1.191,4.192.94a3.127,3.127,0,0,0,1.337-1.266,6.554,6.554,0,0,0,.56-1.055C21.459,18.569,21.6,18.423,20.952,17.775Z" transform="translate(-4.49 -4.502)" fill="#f9342e"/>
</svg>
