<svg xmlns="http://www.w3.org/2000/svg" width="20.24" height="20.238" viewBox="0 0 20.24 20.238">
  <g id="_x32_7-Phone" transform="translate(-9.689 -9.691)">
    <path id="Path_34783" data-name="Path 34783" d="M28.948,24.653,26.009,22.6a2.266,2.266,0,0,0-3.158.562l-.682.978a25.268,25.268,0,0,1-3.635-3.053,25.236,25.236,0,0,1-3.053-3.635l.977-.682a2.265,2.265,0,0,0,.562-3.159l-2.053-2.939a2.27,2.27,0,0,0-1.853-.981,2.127,2.127,0,0,0-.738.132,4.069,4.069,0,0,0-.764.375l-.406.286a3.076,3.076,0,0,0-.286.256A4.075,4.075,0,0,0,9.875,12.6c-.846,3.171,1.25,7.965,5.214,11.93,3.329,3.329,7.329,5.4,10.438,5.4h0a5.791,5.791,0,0,0,1.492-.184A4.075,4.075,0,0,0,28.881,28.7a3.085,3.085,0,0,0,.268-.3l.286-.408a4.086,4.086,0,0,0,.362-.744,2.232,2.232,0,0,0-.849-2.591Z" transform="translate(0 0)" fill="#8e869c"/>
  </g>
</svg>
