<svg id="Icon_ionic-md-camera" data-name="Icon ionic-md-camera" xmlns="http://www.w3.org/2000/svg" width="47.029" height="40.311" viewBox="0 0 47.029 40.311">
  <path id="Path_32379" data-name="Path 32379" d="M26.8,21.871a6.613,6.613,0,1,1-6.613-6.613A6.614,6.614,0,0,1,26.8,21.871Z" transform="translate(3.331 0.804)" fill="#2b373c"/>
  <path id="Path_32380" data-name="Path 32380" d="M45.08,7.859H35.842L32.483,4.5H19.046L15.687,7.859H6.449a4.2,4.2,0,0,0-4.2,4.2V40.612a4.2,4.2,0,0,0,4.2,4.2H45.08a4.2,4.2,0,0,0,4.2-4.2V12.058A4.2,4.2,0,0,0,45.08,7.859ZM25.765,38.932A11.757,11.757,0,1,1,37.522,27.175,11.757,11.757,0,0,1,25.765,38.932Z" transform="translate(-2.25 -4.5)" fill="#2b373c"/>
</svg>
