<svg xmlns="http://www.w3.org/2000/svg" width="24.241" height="24.24" viewBox="0 0 24.241 24.24">
  <g id="Icon_feather-eye-off" data-name="Icon feather-eye-off" transform="translate(0.621 0.621)">
    <path id="Path_34909" data-name="Path 34909" d="M16.9,18.671a9.154,9.154,0,0,1-5.4,1.873c-6.363,0-10-7.272-10-7.272a16.771,16.771,0,0,1,4.6-5.4M9.59,6.218A8.29,8.29,0,0,1,11.5,6c6.363,0,10,7.272,10,7.272a16.816,16.816,0,0,1-1.963,2.9M13.426,15.2a2.727,2.727,0,1,1-3.854-3.854" transform="translate(0 -1.773)" fill="none" stroke="#babec0" stroke-linecap="round" stroke-linejoin="round" stroke-width="3"/>
    <path id="Path_34910" data-name="Path 34910" d="M1.5,1.5l20,20" transform="translate(0 0)" fill="none" stroke="#babec0" stroke-linecap="round" stroke-linejoin="round" stroke-width="3"/>
  </g>
</svg>
