<svg xmlns="http://www.w3.org/2000/svg" width="20.034" height="19.095" viewBox="0 0 20.034 19.095">
  <g id="communication" transform="translate(0 -1.5)">
    <path id="Path_34631" data-name="Path 34631" d="M10,15.5h1.252v1.252H10Z" transform="translate(-6.87 -9.617)" fill="#1e0f3b"/>
    <path id="Path_34632" data-name="Path 34632" d="M17,15.5h1.252v1.252H17Z" transform="translate(-11.678 -9.617)" fill="#1e0f3b"/>
    <path id="Path_34633" data-name="Path 34633" d="M24,15.5h1.252v1.252H24Z" transform="translate(-16.487 -9.617)" fill="#1e0f3b"/>
    <path id="Path_34634" data-name="Path 34634" d="M31,15.5h1.252v1.252H31Z" transform="translate(-21.296 -9.617)" fill="#1e0f3b"/>
    <path id="Path_34635" data-name="Path 34635" d="M38,15.5h1.252v1.252H38Z" transform="translate(-26.105 -9.617)" fill="#1e0f3b"/>
    <path id="Path_34636" data-name="Path 34636" d="M19.408,6.509H15.965V2.126a.626.626,0,0,0-.626-.626H.626A.626.626,0,0,0,0,2.126v9.391a.626.626,0,0,0,.626.626H2.5v2.817a.626.626,0,0,0,.626.626.6.6,0,0,0,.36-.116l.579-.407v1.462a.626.626,0,0,0,.626.626H11.83l4.714,3.328a.6.6,0,0,0,.36.116.626.626,0,0,0,.626-.626V17.152h1.878a.626.626,0,0,0,.626-.626V7.135A.626.626,0,0,0,19.408,6.509Zm-4.7,4.383H8.007a.626.626,0,0,0-.36.116L3.756,13.752V11.517a.626.626,0,0,0-.626-.626H1.252V2.752H14.713Z" transform="translate(0)" fill="#1e0f3b"/>
  </g>
</svg>
