<svg xmlns="http://www.w3.org/2000/svg" width="18.491" height="16.95" viewBox="0 0 18.491 16.95">
  <g id="envelope" transform="translate(0 -1)">
    <path id="Path_518" data-name="Path 518" d="M18.455,5.542,11.97,12.028a3.858,3.858,0,0,1-5.449,0L.035,5.542C.025,5.664,0,5.774,0,5.895V15.14a3.857,3.857,0,0,0,3.852,3.852H14.638a3.857,3.857,0,0,0,3.852-3.852V5.895C18.491,5.774,18.466,5.664,18.455,5.542Z" transform="translate(0 -1.043)" fill="#f9342e"/>
    <path id="Path_519" data-name="Path 519" d="M11.051,9.9l7.037-7.038A3.841,3.841,0,0,0,14.809,1H4.023A3.841,3.841,0,0,0,.744,2.858L7.781,9.9a2.317,2.317,0,0,0,3.27,0Z" transform="translate(-0.171)" fill="#f9342e"/>
  </g>
</svg>
