<svg xmlns="http://www.w3.org/2000/svg" width="54" height="54" viewBox="0 0 54 54">
  <g id="Group_35930" data-name="Group 35930" transform="translate(-1119 -281)">
    <rect id="Rectangle_833" data-name="Rectangle 833" width="54" height="54" rx="16" transform="translate(1119 281)" fill="#f9342e"/>
    <path id="star_4_" data-name="star (4)" d="M4.389,19.284a1.044,1.044,0,0,1-1.016-1.275l1.261-5.557L.357,8.7A1.043,1.043,0,0,1,.948,6.877l5.661-.514L8.847,1.126a1.042,1.042,0,0,1,1.917,0L13,6.363l5.66.514A1.043,1.043,0,0,1,19.253,8.7l-4.278,3.751,1.261,5.557a1.042,1.042,0,0,1-1.551,1.126L9.8,16.217,4.924,19.136a1.044,1.044,0,0,1-.534.148ZM9.8,14.961a1.045,1.045,0,0,1,.534.148l4.607,2.755-1.191-5.245a1.042,1.042,0,0,1,.33-1.016l4.04-3.543-5.344-.485a1.041,1.041,0,0,1-.866-.632L9.8,2,7.693,6.945a1.038,1.038,0,0,1-.864.629l-5.345.485L5.523,11.6a1.04,1.04,0,0,1,.33,1.016l-1.19,5.245L9.27,15.109a1.044,1.044,0,0,1,.534-.148Zm-3.24-8.5v0Zm6.478,0v0Zm0,0" transform="translate(1136.195 298.112)" fill="#fff" stroke="#fff" stroke-width="1"/>
  </g>
</svg>
