<svg xmlns="http://www.w3.org/2000/svg" width="22.118" height="20.355" viewBox="0 0 22.118 20.355">
  <g id="folder_9_" data-name="folder (9)" transform="translate(0.15 0.15)">
    <path id="Path_293" data-name="Path 293" d="M19.372,22.821h-7.54l-1.615-1.707A3.142,3.142,0,0,0,7.811,20H2.446A2.449,2.449,0,0,0,0,22.446V37.609a2.449,2.449,0,0,0,2.446,2.446H19.372a2.449,2.449,0,0,0,2.446-2.446V25.267A2.449,2.449,0,0,0,19.372,22.821Zm1.785,14.788a1.787,1.787,0,0,1-1.785,1.785H2.446A1.787,1.787,0,0,1,.661,37.609V27.383A1.787,1.787,0,0,1,2.446,25.6H19.372a1.787,1.787,0,0,1,1.785,1.785ZM19.372,24.937H2.446a2.439,2.439,0,0,0-1.785.776V22.446a1.787,1.787,0,0,1,1.785-1.785H7.811a2.484,2.484,0,0,1,1.921.9l0,0,1.714,1.812a.331.331,0,0,0,.24.1h7.682a1.787,1.787,0,0,1,1.785,1.785v.446A2.439,2.439,0,0,0,19.372,24.937Z" transform="translate(0 -20)" fill="#1e0f3b" stroke="#1e0f3b" stroke-width="0.3"/>
    <path id="Path_294" data-name="Path 294" d="M324.915,180h-4.584a.331.331,0,0,0,0,.661h4.584a.331.331,0,0,0,0-.661Z" transform="translate(-305.895 -171.948)" fill="#1e0f3b" stroke="#1e0f3b" stroke-width="0.3"/>
    <path id="Path_295" data-name="Path 295" d="M324.915,220h-4.584a.331.331,0,0,0,0,.661h4.584a.331.331,0,0,0,0-.661Z" transform="translate(-305.895 -209.634)" fill="#1e0f3b" stroke="#1e0f3b" stroke-width="0.3"/>
  </g>
</svg>
