<svg xmlns="http://www.w3.org/2000/svg" width="60" height="60" viewBox="0 0 60 60">
  <g id="Group_36137" data-name="Group 36137" transform="translate(-258 -200)">
    <rect id="Rectangle_17204" data-name="Rectangle 17204" width="60" height="60" rx="10" transform="translate(258 200)" fill="#f9f6ee"/>
    <g id="google" transform="translate(268 210)">
      <path id="Path_465" data-name="Path 465" d="M284.8,211.48H268.439a1.308,1.308,0,0,0-1.308,1.308v5.225a1.308,1.308,0,0,0,1.308,1.308h9.211a12.3,12.3,0,0,1-5.293,6.2l3.928,6.8a19.661,19.661,0,0,0,10.025-17.194,13.252,13.252,0,0,0-.225-2.568A1.314,1.314,0,0,0,284.8,211.48Z" transform="translate(-246.208 -194.915)" fill="#167ee6"/>
      <path id="Path_466" data-name="Path 466" d="M51.767,339.955a12.2,12.2,0,0,1-10.557-6.108l-6.8,3.919a20.035,20.035,0,0,0,27.381,7.349v-.009l-3.928-6.8A12.113,12.113,0,0,1,51.767,339.955Z" transform="translate(-31.716 -307.699)" fill="#12b347"/>
      <path id="Path_467" data-name="Path 467" d="M266.025,397.588v-.009l-3.928-6.8a12.115,12.115,0,0,1-6.1,1.648v7.846A20.016,20.016,0,0,0,266.025,397.588Z" transform="translate(-235.949 -360.172)" fill="#0f993e"/>
      <path id="Path_468" data-name="Path 468" d="M7.846,138.135a12.114,12.114,0,0,1,1.648-6.1l-6.8-3.919a19.959,19.959,0,0,0,0,20.032l6.8-3.919A12.114,12.114,0,0,1,7.846,138.135Z" transform="translate(0 -118.084)" fill="#ffd500"/>
      <path id="Path_469" data-name="Path 469" d="M51.767,7.846a12.149,12.149,0,0,1,7.749,2.782,1.3,1.3,0,0,0,1.753-.079l3.7-3.7A1.318,1.318,0,0,0,64.9,4.92a20.007,20.007,0,0,0-30.484,5.115l6.8,3.919A12.2,12.2,0,0,1,51.767,7.846Z" transform="translate(-31.716 0)" fill="#ff4b26"/>
      <path id="Path_470" data-name="Path 470" d="M263.749,10.628a1.3,1.3,0,0,0,1.753-.079l3.7-3.7a1.318,1.318,0,0,0-.075-1.927A19.99,19.99,0,0,0,256,0V7.846A12.149,12.149,0,0,1,263.749,10.628Z" transform="translate(-235.949)" fill="#d93f21"/>
    </g>
  </g>
</svg>
