<svg id="google" xmlns="http://www.w3.org/2000/svg" width="63" height="63" viewBox="0 0 63 63">
  <path id="Path_465" data-name="Path 465" d="M294.883,211.48h-25.7a2.054,2.054,0,0,0-2.055,2.054v8.209a2.055,2.055,0,0,0,2.054,2.054h14.471a19.319,19.319,0,0,1-8.315,9.745l6.17,10.682a30.887,30.887,0,0,0,15.75-27.012,20.822,20.822,0,0,0-.354-4.034A2.064,2.064,0,0,0,294.883,211.48Z" transform="translate(-234.261 -185.457)" fill="#167ee6"/>
  <path id="Path_466" data-name="Path 466" d="M61.677,343.442a19.17,19.17,0,0,1-16.585-9.6L34.411,340a31.475,31.475,0,0,0,43.016,11.545v-.015l-6.17-10.682A19.03,19.03,0,0,1,61.677,343.442Z" transform="translate(-30.177 -292.768)" fill="#12b347"/>
  <path id="Path_467" data-name="Path 467" d="M271.75,401.475v-.015l-6.17-10.682a19.032,19.032,0,0,1-9.58,2.59v12.326A31.446,31.446,0,0,0,271.75,401.475Z" transform="translate(-224.5 -342.695)" fill="#0f993e"/>
  <path id="Path_468" data-name="Path 468" d="M12.326,143.854a19.032,19.032,0,0,1,2.589-9.579L4.234,128.119a31.356,31.356,0,0,0,0,31.471l10.681-6.157A19.031,19.031,0,0,1,12.326,143.854Z" transform="translate(0 -112.354)" fill="#ffd500"/>
  <path id="Path_469" data-name="Path 469" d="M61.677,12.326A19.086,19.086,0,0,1,73.85,16.7a2.047,2.047,0,0,0,2.754-.124l5.816-5.816A2.07,2.07,0,0,0,82.3,7.729a31.431,31.431,0,0,0-47.891,8.036l10.681,6.157A19.17,19.17,0,0,1,61.677,12.326Z" transform="translate(-30.177)" fill="#ff4b26"/>
  <path id="Path_470" data-name="Path 470" d="M268.173,16.7a2.047,2.047,0,0,0,2.754-.124l5.816-5.816a2.07,2.07,0,0,0-.119-3.027A31.4,31.4,0,0,0,256,0V12.326A19.086,19.086,0,0,1,268.173,16.7Z" transform="translate(-224.5)" fill="#d93f21"/>
</svg>
