<svg id="google" xmlns="http://www.w3.org/2000/svg" width="50" height="50" viewBox="0 0 50 50">
  <path id="Path_465" data-name="Path 465" d="M289.156,211.48H268.762a1.63,1.63,0,0,0-1.631,1.63v6.515a1.631,1.631,0,0,0,1.63,1.63h11.485a15.333,15.333,0,0,1-6.6,7.734l4.9,8.477a24.514,24.514,0,0,0,12.5-21.438,16.526,16.526,0,0,0-.281-3.2A1.638,1.638,0,0,0,289.156,211.48Z" transform="translate(-241.044 -190.827)" fill="#167ee6"/>
  <path id="Path_466" data-name="Path 466" d="M56.051,341.462a15.214,15.214,0,0,1-13.162-7.615l-8.477,4.886a24.98,24.98,0,0,0,34.14,9.163v-.012l-4.9-8.478A15.1,15.1,0,0,1,56.051,341.462Z" transform="translate(-31.051 -301.245)" fill="#12b347"/>
  <path id="Path_467" data-name="Path 467" d="M268.5,399.268v-.012l-4.9-8.477a15.1,15.1,0,0,1-7.6,2.055v9.783A24.958,24.958,0,0,0,268.5,399.268Z" transform="translate(-231 -352.617)" fill="#0f993e"/>
  <path id="Path_468" data-name="Path 468" d="M9.783,140.607a15.1,15.1,0,0,1,2.055-7.6L3.36,128.119a24.885,24.885,0,0,0,0,24.977l8.477-4.886A15.1,15.1,0,0,1,9.783,140.607Z" transform="translate(0 -115.607)" fill="#ffd500"/>
  <path id="Path_469" data-name="Path 469" d="M56.051,9.783a15.147,15.147,0,0,1,9.661,3.469,1.624,1.624,0,0,0,2.186-.1l4.616-4.616a1.643,1.643,0,0,0-.094-2.4,24.945,24.945,0,0,0-38.009,6.378L42.888,17.4A15.214,15.214,0,0,1,56.051,9.783Z" transform="translate(-31.051)" fill="#ff4b26"/>
  <path id="Path_470" data-name="Path 470" d="M265.661,13.251a1.624,1.624,0,0,0,2.186-.1l4.616-4.616a1.643,1.643,0,0,0-.094-2.4A24.924,24.924,0,0,0,256,0V9.783A15.147,15.147,0,0,1,265.661,13.251Z" transform="translate(-231)" fill="#d93f21"/>
</svg>
