<svg xmlns="http://www.w3.org/2000/svg" width="18.665" height="19.993" viewBox="0 0 18.665 19.993">
  <g id="Group_35346" data-name="Group 35346" transform="translate(-42 -86.99)">
    <ellipse id="Ellipse_232" data-name="Ellipse 232" cx="3.656" cy="3.623" rx="3.656" ry="3.623" transform="translate(50.561 86.99)" fill="#1e0f3b"/>
    <circle id="Ellipse_233" data-name="Ellipse 233" cx="2.742" cy="2.742" r="2.742" transform="translate(42.64 88.77)" fill="#1e0f3b"/>
    <path id="Path_33275" data-name="Path 33275" d="M6.4,241.267c-1.033-.846-1.969-.734-3.163-.734A3.234,3.234,0,0,0,0,243.754v5.212a1.4,1.4,0,0,0,1.4,1.4c3.342,0,2.939.06,2.939-.144C4.343,246.526,3.905,243.818,6.4,241.267Z" transform="translate(42 -144.943)" fill="#1e0f3b"/>
    <path id="Path_33276" data-name="Path 33276" d="M127.8,239.906c-2.087-.174-3.9,0-5.464,1.293-2.618,2.1-2.114,4.92-2.114,8.374a1.674,1.674,0,0,0,1.671,1.671c10.073,0,10.474.325,11.071-1,.2-.447.142-.305.142-4.584A5.785,5.785,0,0,0,127.8,239.906Z" transform="translate(-72.449 -144.297)" fill="#1e0f3b"/>
  </g>
</svg>
