<svg xmlns="http://www.w3.org/2000/svg" width="21.042" height="20" viewBox="0 0 21.042 20">
  <g id="home_3_" data-name="home (3)" transform="translate(0 -12.675)">
    <g id="Group_35819" data-name="Group 35819" transform="translate(0 12.675)">
      <g id="Group_35818" data-name="Group 35818" transform="translate(0 0)">
        <path id="Path_34626" data-name="Path 34626" d="M20.688,21.561l-9.441-8.6a1.074,1.074,0,0,0-1.453,0l-9.441,8.6a1.079,1.079,0,0,0,.727,1.877H2.588v8.619a.619.619,0,0,0,.619.619H8.381A.619.619,0,0,0,9,32.057V26.823h3.041v5.233a.619.619,0,0,0,.619.619h5.174a.619.619,0,0,0,.619-.619V23.438h1.508a1.079,1.079,0,0,0,.727-1.877Z" transform="translate(0 -12.675)" fill="#1e0f3b"/>
      </g>
    </g>
    <g id="Group_35821" data-name="Group 35821" transform="translate(14.139 13.91)">
      <g id="Group_35820" data-name="Group 35820" transform="translate(0 0)">
        <path id="Path_34627" data-name="Path 34627" d="M348.127,42.73h-4.154l4.773,4.34V43.349A.619.619,0,0,0,348.127,42.73Z" transform="translate(-343.973 -42.73)" fill="#1e0f3b"/>
      </g>
    </g>
  </g>
</svg>
