<svg xmlns="http://www.w3.org/2000/svg" width="54" height="54" viewBox="0 0 54 54">
  <g id="Group_35813" data-name="Group 35813" transform="translate(-174 -362)">
    <rect id="Rectangle_833" data-name="Rectangle 833" width="54" height="54" rx="16" transform="translate(174 362)" fill="#f9342e"/>
    <g id="send-mail" transform="translate(151.446 344.963)">
      <path id="Path_34866" data-name="Path 34866" d="M274.87,188.733a.573.573,0,0,1,.573.573v.473L278,187.587l-2.558-2.193v.473a.573.573,0,0,1-.573.573c-3.428,0-6.911,1.506-7.805,3.195A32.693,32.693,0,0,1,274.87,188.733Z" transform="translate(-211.747 -142.403)" fill="#fff"/>
      <circle id="Ellipse_388" data-name="Ellipse 388" cx="4.586" cy="4.586" r="4.586" transform="translate(45.208 32)" fill="#fff"/>
      <path id="Path_34867" data-name="Path 34867" d="M51.513,189.667v-3.923a.573.573,0,0,1,.573-.573h7.281a12.71,12.71,0,0,0-1.05-3.508l-.294.054a20.222,20.222,0,0,0-2.317.559.573.573,0,0,1-.754-.544,3.65,3.65,0,0,1,1.56-2.77,9.1,9.1,0,0,0-13.585.162,12.39,12.39,0,0,0-2.874,7.995,23.816,23.816,0,0,0,9.74,2.637A17.006,17.006,0,0,0,51.513,189.667Z" transform="translate(-1 -133.683)" fill="#fff"/>
      <path id="Path_34868" data-name="Path 34868" d="M47.907,189.667v-3.923a.573.573,0,0,0-.573-.573H40.053a12.711,12.711,0,0,1,1.05-3.508l.294.054a20.222,20.222,0,0,1,2.317.559.573.573,0,0,0,.754-.544,3.65,3.65,0,0,0-1.56-2.77c1.77-1.914,2.419,1.1,5,1.1,2.644,0,.681,1.962,2.465,3.977.951,1.074,6.977-2.309,6.977-2.309a15.081,15.081,0,0,1,2.019,5.387,23.816,23.816,0,0,1-9.741,2.637A17.006,17.006,0,0,1,47.907,189.667Z" transform="translate(0 -133.683)" fill="#fff"/>
    </g>
  </g>
</svg>
