<svg xmlns="http://www.w3.org/2000/svg" width="54" height="54" viewBox="0 0 54 54">
  <g id="Group_35930" data-name="Group 35930" transform="translate(-1119 -281)">
    <rect id="Rectangle_833" data-name="Rectangle 833" width="54" height="54" rx="16" transform="translate(1119 281)" fill="#f9342e"/>
    <g id="invitation" transform="translate(1126.734 297.957)">
      <g id="Group_36041" data-name="Group 36041" transform="translate(9.668 0)">
        <g id="Group_36040" data-name="Group 36040" transform="translate(0 0)">
          <path id="Path_34825" data-name="Path 34825" d="M28.713,7.158,26.244,5.1V2.174a.462.462,0,0,0-.477-.445H22.174L20.733.527a2.292,2.292,0,0,0-2.928,0l-1.441,1.2H12.724a.462.462,0,0,0-.477.445V5.143L9.824,7.158a.454.454,0,0,0-.156.353h.009V17.787a2.291,2.291,0,0,0,2.281,2.3H26.575a2.291,2.291,0,0,0,2.281-2.3V7.511h.009A.417.417,0,0,0,28.713,7.158Zm-2.469-.867,1.446,1.2L26.244,8.567ZM18.392,1.233a1.378,1.378,0,0,1,1.758,0l.583.491H17.8ZM13.165,2.647H25.326v6.6L20.1,13.142a1.4,1.4,0,0,1-1.657,0L13.165,9.214V2.647Zm-.918,3.685v2.2l-1.4-1.042Zm15.7,11.45a1.374,1.374,0,0,1-1.363,1.386H11.958a1.373,1.373,0,0,1-1.363-1.381V8.425L17.9,13.881a2.3,2.3,0,0,0,2.735,0l7.306-5.457Z" transform="translate(-9.668 0)" fill="#fff" stroke="#fff" stroke-width="0.8"/>
        </g>
      </g>
      <g id="Group_36043" data-name="Group 36043" transform="translate(15.964 6.318)">
        <g id="Group_36042" data-name="Group 36042">
          <path id="Path_34826" data-name="Path 34826" d="M149.81,137.663h-2.478a.459.459,0,0,0,0,.918h2.478a.459.459,0,0,0,0-.918Z" transform="translate(-146.873 -137.663)" fill="#fff" stroke="#fff" stroke-width="0.8"/>
        </g>
      </g>
      <g id="Group_36045" data-name="Group 36045" transform="translate(15.964 8.613)">
        <g id="Group_36044" data-name="Group 36044">
          <path id="Path_34827" data-name="Path 34827" d="M153.023,187.663h-5.691a.459.459,0,0,0,0,.918h5.691a.459.459,0,0,0,0-.918Z" transform="translate(-146.873 -187.663)" fill="#fff" stroke="#fff" stroke-width="0.8"/>
        </g>
      </g>
    </g>
  </g>
</svg>
