<svg xmlns="http://www.w3.org/2000/svg" width="20.257" height="20.257" viewBox="0 0 20.257 20.257">
  <g id="Icon" transform="translate(-1.25 -1.25)">
    <path id="Path_34786" data-name="Path 34786" d="M21.507,12.846V8.4H1.25v9.657a3.533,3.533,0,0,0,3.533,3.533h7.976a6.36,6.36,0,1,1,8.748-8.748ZM1.25,6.99H21.507V6.283A3.533,3.533,0,0,0,17.974,2.75H16.325V5.341a.707.707,0,1,1-1.413,0V2.75H7.845V5.341a.707.707,0,1,1-1.413,0V2.75H4.783A3.533,3.533,0,0,0,1.25,6.283Z" transform="translate(0 -0.087)" fill="#8e869c" fill-rule="evenodd"/>
    <path id="Path_34787" data-name="Path 34787" d="M22.085,16.668a5.418,5.418,0,1,0-5.418,5.418A5.42,5.42,0,0,0,22.085,16.668Zm-6.124-2.12V16.9a.707.707,0,0,0,.391.632l1.413.707a.707.707,0,0,0,.631-1.264l-1.022-.512V14.548a.707.707,0,0,0-1.413,0Z" transform="translate(-0.578 -0.578)" fill="#8e869c" fill-rule="evenodd"/>
    <path id="Path_34788" data-name="Path 34788" d="M6.75,2.663H8.163V1.957a.707.707,0,1,0-1.413,0Z" transform="translate(-0.318)" fill="#8e869c" fill-rule="evenodd"/>
    <path id="Path_34789" data-name="Path 34789" d="M15.75,2.663h1.413V1.957a.707.707,0,1,0-1.413,0Z" transform="translate(-0.838)" fill="#8e869c" fill-rule="evenodd"/>
  </g>
</svg>
