<svg xmlns="http://www.w3.org/2000/svg" width="54" height="54" viewBox="0 0 54 54">
  <g id="Group_35922" data-name="Group 35922" transform="translate(-1146 -155)">
    <rect id="Rectangle_833" data-name="Rectangle 833" width="54" height="54" rx="16" transform="translate(1146 155)" fill="#f9342e"/>
    <g id="calendar_4_" data-name="calendar (4)" transform="translate(1162.621 171.621)">
      <g id="Group_35988" data-name="Group 35988">
        <g id="Group_35987" data-name="Group 35987">
          <path id="Path_34806" data-name="Path 34806" d="M17.515,1.622H16.461V.811a.811.811,0,0,0-1.622,0v.811H11.15V.811a.811.811,0,1,0-1.622,0v.811H5.879V.811a.811.811,0,0,0-1.622,0v.811H3.244A3.247,3.247,0,0,0,0,4.865v12.65a3.247,3.247,0,0,0,3.244,3.244h6.2a.811.811,0,1,0,0-1.622h-6.2a1.624,1.624,0,0,1-1.622-1.622V4.865A1.624,1.624,0,0,1,3.244,3.244H4.257v.811a.811.811,0,1,0,1.622,0V3.244H9.528v.811a.811.811,0,0,0,1.622,0V3.244h3.69v.811a.811.811,0,0,0,1.622,0V3.244h1.054a1.624,1.624,0,0,1,1.622,1.622V9.487a.811.811,0,0,0,1.622,0V4.865A3.247,3.247,0,0,0,17.515,1.622Z" fill="#fff" stroke="#fff" stroke-width="0.5"/>
          <path id="Path_34807" data-name="Path 34807" d="M274.906,270a4.906,4.906,0,1,0,4.906,4.906A4.911,4.911,0,0,0,274.906,270Zm0,8.19a3.284,3.284,0,1,1,3.284-3.284A3.288,3.288,0,0,1,274.906,278.19Z" transform="translate(-259.053 -259.053)" fill="#fff" stroke="#fff" stroke-width="0.5"/>
          <path id="Path_34808" data-name="Path 34808" d="M372.987,331.662h-.365v-.851a.811.811,0,0,0-1.622,0v1.662a.811.811,0,0,0,.811.811h1.176a.811.811,0,0,0,0-1.622Z" transform="translate(-355.958 -316.62)" fill="#fff" stroke="#fff" stroke-width="0.5"/>
          <circle id="Ellipse_364" data-name="Ellipse 364" cx="0.691" cy="0.691" r="0.691" transform="translate(7.395 11.054)" fill="#fff" stroke="#fff" stroke-width="0.5"/>
          <circle id="Ellipse_371" data-name="Ellipse 371" cx="0.691" cy="0.691" r="0.691" transform="translate(3.844 11.054)" fill="#fff" stroke="#fff" stroke-width="0.5"/>
          <circle id="Ellipse_368" data-name="Ellipse 368" cx="0.691" cy="0.691" r="0.691" transform="translate(7.395 15.199)" fill="#fff" stroke="#fff" stroke-width="0.5"/>
          <circle id="Ellipse_370" data-name="Ellipse 370" cx="0.691" cy="0.691" r="0.691" transform="translate(3.844 15.199)" fill="#fff" stroke="#fff" stroke-width="0.5"/>
          <circle id="Ellipse_369" data-name="Ellipse 369" cx="0.691" cy="0.691" r="0.691" transform="translate(7.395 6.909)" fill="#fff" stroke="#fff" stroke-width="0.5"/>
          <circle id="Ellipse_373" data-name="Ellipse 373" cx="0.691" cy="0.691" r="0.691" transform="translate(14.498 6.909)" fill="#fff" stroke="#fff" stroke-width="0.5"/>
          <circle id="Ellipse_372" data-name="Ellipse 372" cx="0.691" cy="0.691" r="0.691" transform="translate(3.844 6.909)" fill="#fff" stroke="#fff" stroke-width="0.5"/>
          <circle id="Ellipse_374" data-name="Ellipse 374" cx="0.691" cy="0.691" r="0.691" transform="translate(10.947 6.909)" fill="#fff" stroke="#fff" stroke-width="0.5"/>
        </g>
      </g>
    </g>
  </g>
</svg>
