<svg xmlns="http://www.w3.org/2000/svg" width="46" height="45.057" viewBox="0 0 46 45.057">
  <g id="Group_793" data-name="Group 793" transform="translate(0 0)">
    <ellipse id="Ellipse_21" data-name="Ellipse 21" cx="23" cy="22.5" rx="23" ry="22.5" transform="translate(0 0)"/>
    <path id="spotify" d="M23,0A22.754,22.754,0,0,0,0,22.5,22.754,22.754,0,0,0,23,45,22.754,22.754,0,0,0,46,22.5,22.754,22.754,0,0,0,23,0ZM33.01,32.654a1.594,1.594,0,0,1-2.151.552,23.583,23.583,0,0,0-12.186-2.645,30.856,30.856,0,0,0-6.321.817A1.578,1.578,0,0,1,10.419,30.3a1.534,1.534,0,0,1,1.1-1.89,33.425,33.425,0,0,1,6.971-.922,31.372,31.372,0,0,1,6.716.476,22.989,22.989,0,0,1,7.241,2.586A1.52,1.52,0,0,1,33.01,32.654Zm2.924-5.941a1.888,1.888,0,0,1-2.549.654c-4.9-2.8-10.552-3.249-14.435-3.133a36.558,36.558,0,0,0-7.488.967,1.869,1.869,0,0,1-2.288-1.276,1.817,1.817,0,0,1,1.3-2.239,39.583,39.583,0,0,1,8.258-1.093,37.169,37.169,0,0,1,7.955.563,27.234,27.234,0,0,1,8.578,3.063A1.8,1.8,0,0,1,35.934,26.713Zm1.8-5.4a2.313,2.313,0,0,1-1.151-.306c-11.639-6.654-26.737-2.7-26.889-2.657a2.291,2.291,0,0,1-2.81-1.561,2.23,2.23,0,0,1,1.6-2.749A48.548,48.548,0,0,1,18.607,12.7a45.6,45.6,0,0,1,9.758.691,33.4,33.4,0,0,1,10.521,3.757,2.209,2.209,0,0,1,.82,3.058A2.3,2.3,0,0,1,37.731,21.311Z" transform="translate(0 0.057)" fill="#00d95f"/>
  </g>
</svg>
