<svg xmlns="http://www.w3.org/2000/svg" width="34" height="34" viewBox="0 0 34 34">
  <g id="Group_794" data-name="Group 794" transform="translate(-1067 -181)">
    <g id="Group_793" data-name="Group 793" transform="translate(1067 181)">
      <circle id="Ellipse_21" data-name="Ellipse 21" cx="17" cy="17" r="17" fill="#1e0f3b"/>
      <path id="spotify" d="M17,0A17,17,0,1,0,34,17,17,17,0,0,0,17,0Zm7.4,24.672a1.162,1.162,0,0,1-1.59.417,17.113,17.113,0,0,0-9.007-2,22.344,22.344,0,0,0-4.672.617,1.163,1.163,0,0,1-.616-2.242,24.206,24.206,0,0,1,5.153-.7,22.7,22.7,0,0,1,4.964.359,16.754,16.754,0,0,1,5.352,1.954A1.162,1.162,0,0,1,24.4,24.672Zm2.161-4.489a1.376,1.376,0,0,1-1.884.494A20.27,20.27,0,0,0,14.007,18.31a26.473,26.473,0,0,0-5.535.731,1.377,1.377,0,0,1-.73-2.656,28.665,28.665,0,0,1,6.1-.826,26.888,26.888,0,0,1,5.88.426,19.848,19.848,0,0,1,6.34,2.314A1.377,1.377,0,0,1,26.56,20.183ZM27.888,16.1a1.681,1.681,0,0,1-.851-.231c-8.6-5.028-19.762-2.039-19.874-2.008a1.689,1.689,0,0,1-.9-3.257,35.158,35.158,0,0,1,7.487-1.013,32.986,32.986,0,0,1,7.213.522,24.344,24.344,0,0,1,7.777,2.839,1.689,1.689,0,0,1-.854,3.148Z" fill="#00d95f"/>
    </g>
  </g>
</svg>
