<svg xmlns="http://www.w3.org/2000/svg" width="19.993" height="19.993" viewBox="0 0 19.993 19.993">
  <g id="Layer_2" data-name="Layer 2" transform="translate(-1 -1)">
    <path id="Path_34630" data-name="Path 34630" d="M11,1a10,10,0,1,0,10,10A10,10,0,0,0,11,1Zm.666,13.835v.753a.666.666,0,0,1-1.333,0v-.746a2.333,2.333,0,0,1-1.486-1.333.672.672,0,0,1,1.246-.5.966.966,0,0,0,.906.613.98.98,0,0,0,.986-.98A1,1,0,0,0,11,11.616,2.359,2.359,0,0,1,8.9,8.244a2.179,2.179,0,0,1,1.433-1.2V6.278a.666.666,0,0,1,1.333,0v.786a2.319,2.319,0,0,1,.966.56,2.392,2.392,0,0,1,.526.793.669.669,0,0,1-1.246.473,1.14,1.14,0,0,0-.22-.32.961.961,0,0,0-1.646.7,1.02,1.02,0,0,0,.946,1.013,2.433,2.433,0,0,1,2.339,2,2.333,2.333,0,0,1-1.666,2.552Z" fill="#1e0f3b"/>
  </g>
</svg>
