<svg xmlns="http://www.w3.org/2000/svg" width="44" height="44" viewBox="0 0 44 44">
  <g id="Group_35932" data-name="Group 35932" transform="translate(-273 -319)">
    <rect id="Rectangle_17181" data-name="Rectangle 17181" width="44" height="44" rx="10" transform="translate(273 319)" fill="rgba(253,237,0,0.2)"/>
    <path id="Icon_metro-suitcase" data-name="Icon metro-suitcase" d="M23.856,25.141H6.047A1.549,1.549,0,0,1,4.5,23.593V14.3a39.427,39.427,0,0,0,7.743,2.93v.942a.774.774,0,0,0,.774.774h3.871a.774.774,0,0,0,.774-.774v-.942A39.45,39.45,0,0,0,25.4,14.3v9.291A1.549,1.549,0,0,1,23.856,25.141ZM16.113,15.85a.774.774,0,0,1,.774.774V17.4a.774.774,0,0,1-.774.774H13.79a.774.774,0,0,1-.774-.774v-.774a.774.774,0,0,1,.774-.774Zm1.549,0a.774.774,0,0,0-.774-.774H13.016a.774.774,0,0,0-.774.774v.694A38.784,38.784,0,0,1,4.5,13.527v-3.1A1.549,1.549,0,0,1,6.047,8.881h4.646V7.333a1.549,1.549,0,0,1,1.549-1.549h5.42A1.549,1.549,0,0,1,19.21,7.333V8.881h4.646A1.549,1.549,0,0,1,25.4,10.43v3.1a38.806,38.806,0,0,1-7.743,3.017V15.85Zm0-7.743a.774.774,0,0,0-.774-.774H13.016a.774.774,0,0,0-.774.774v.774h5.42Z" transform="translate(280.048 325.537)" fill="#1e0f3b" opacity="0.5"/>
  </g>
</svg>
