<svg xmlns="http://www.w3.org/2000/svg" width="61.694" height="79.865" viewBox="0 0 61.694 79.865">
  <g id="surface1" transform="translate(-0.5)">
    <path id="Path_34802" data-name="Path 34802" d="M40.644,13.775V0H8.191A7.728,7.728,0,0,0,.5,7.67V72.2a7.728,7.728,0,0,0,7.691,7.67H54.5a7.728,7.728,0,0,0,7.69-7.67V22.607H49.5A8.832,8.832,0,0,1,40.644,13.775Zm9.782,53.2a1.7,1.7,0,0,1-1.69,1.69H13.959a1.69,1.69,0,1,1,0-3.381h34.8A1.677,1.677,0,0,1,50.426,66.976Zm0,0" fill="#1e0f3b"/>
    <path id="Path_34803" data-name="Path 34803" d="M285,33.288h10.374L279.527,16.66V27.837A5.441,5.441,0,0,0,285,33.288Zm0,0" transform="translate(-235.503 -14.061)" fill="#1e0f3b"/>
  </g>
</svg>
