<svg xmlns="http://www.w3.org/2000/svg" width="21.398" height="19.367" viewBox="0 0 21.398 19.367">
  <g id="task" transform="translate(0 -3)">
    <path id="Path_34835" data-name="Path 34835" d="M11,13v4.469H24.205V13Zm10.69,2.98H13.515a.756.756,0,0,1,0-1.49H21.69a.756.756,0,0,1,0,1.49Z" transform="translate(-2.807 -2.551)" fill="#1e0f3b"/>
    <path id="Path_34836" data-name="Path 34836" d="M22.319,3H11V8.959H24.205V5.235A2.089,2.089,0,0,0,22.319,3ZM21.69,7.469H13.515a.694.694,0,0,1-.629-.745.694.694,0,0,1,.629-.745H21.69a.694.694,0,0,1,.629.745A.694.694,0,0,1,21.69,7.469Z" transform="translate(-2.807)" fill="#1e0f3b"/>
    <path id="Path_34837" data-name="Path 34837" d="M0,13v4.469H6.7V13Zm5,2.019L3.516,16.494a.729.729,0,0,1-1.05,0l-.737-.73a.751.751,0,0,1,0-1.058.742.742,0,0,1,1.05,0l.209.209.953-.953A.748.748,0,1,1,5,15.019Z" transform="translate(0 -2.551)" fill="#1e0f3b"/>
    <path id="Path_34838" data-name="Path 34838" d="M6.7,21H0v3.724a2.237,2.237,0,0,0,2.235,2.235H6.7Z" transform="translate(0 -4.592)" fill="#1e0f3b"/>
    <path id="Path_34839" data-name="Path 34839" d="M2.235,3A2.241,2.241,0,0,0,0,5.235V8.959H6.7V3ZM5,6.508,3.516,7.983a.729.729,0,0,1-1.05,0l-.737-.73a.751.751,0,0,1,0-1.058.742.742,0,0,1,1.05,0l.209.209.953-.953A.748.748,0,1,1,5,6.508Z" fill="#1e0f3b"/>
    <path id="Path_34840" data-name="Path 34840" d="M11,21v5.959H22.319a2.089,2.089,0,0,0,1.886-2.235V21Zm10.69,3.724H13.515a.756.756,0,0,1,0-1.49H21.69a.756.756,0,0,1,0,1.49Z" transform="translate(-2.807 -4.592)" fill="#1e0f3b"/>
  </g>
</svg>
