<svg xmlns="http://www.w3.org/2000/svg" width="22.524" height="19.993" viewBox="0 0 22.524 19.993">
  <path id="user-list" d="M22.227,17.616a1.137,1.137,0,0,0-.84-.371H1.137A1.137,1.137,0,0,0,0,18.487l1.08,11.606a1.137,1.137,0,0,0,1.132,1.031H20.306a1.137,1.137,0,0,0,1.132-1.031l1.08-11.606A1.136,1.136,0,0,0,22.227,17.616ZM15.053,28.744H7.473a1.137,1.137,0,0,1-1.137-1.137,2.8,2.8,0,0,1,2.8-2.8h.816a2.719,2.719,0,1,1,2.621,0h.816a2.8,2.8,0,0,1,2.8,2.706c0,.031,0,.062,0,.094A1.137,1.137,0,0,1,15.053,28.744Zm5.284-13.615a.852.852,0,0,1-.853.853H3.039a.853.853,0,1,1,0-1.705H19.484A.852.852,0,0,1,20.337,15.129Zm-2.251-3.145a.852.852,0,0,1-.853.853H5.29a.853.853,0,1,1,0-1.705H17.233A.853.853,0,0,1,18.086,11.984Z" transform="translate(0 -11.131)" fill="#1e0f3b"/>
</svg>
