<svg xmlns="http://www.w3.org/2000/svg" width="54" height="54" viewBox="0 0 54 54">
  <g id="Group_35930" data-name="Group 35930" transform="translate(-1119 -281)">
    <rect id="Rectangle_833" data-name="Rectangle 833" width="54" height="54" rx="16" transform="translate(1119 281)" fill="#f9342e"/>
    <g id="eye_2_" data-name="eye (2)" transform="translate(1134 257.5)">
      <path id="Path_34828" data-name="Path 34828" d="M23.4,55.051a.934.934,0,0,1-1.256-.4h0c-1.432-2.791-5.235-6.792-10.191-6.792-4.445,0-8.394,3.292-10.191,6.792A.934.934,0,0,1,.1,53.794c2.064-4.029,6.6-7.808,11.853-7.808,5.989,0,10.278,4.733,11.853,7.808A.934.934,0,0,1,23.4,55.051ZM.363,45.02,2.443,46.9a.934.934,0,0,0,1.251-1.387l-2.08-1.877A.934.934,0,0,0,.363,45.02Zm21.1,1.877,2.08-1.877A.934.934,0,0,0,22.3,43.633l-2.08,1.877A.934.934,0,0,0,21.468,46.9Zm-9.512-3.724a.934.934,0,0,0,.934-.934v-2.8a.934.934,0,1,0-1.868,0v2.8a.934.934,0,0,0,.934.934ZM16.544,54.22a4.588,4.588,0,1,1-4.588-4.6A4.6,4.6,0,0,1,16.544,54.22Zm-1.868,0a2.72,2.72,0,1,0-2.72,2.727A2.727,2.727,0,0,0,14.676,54.22Z" transform="translate(0)" fill="#fff" stroke="#fff" stroke-width="0.5"/>
    </g>
  </g>
</svg>
