<svg id="google" xmlns="http://www.w3.org/2000/svg" width="35" height="35" viewBox="0 0 35 35">
  <path id="Path_465" data-name="Path 465" d="M282.549,211.48H268.272a1.141,1.141,0,0,0-1.141,1.141v4.561a1.141,1.141,0,0,0,1.141,1.141h8.039a10.733,10.733,0,0,1-4.62,5.414l3.428,5.934a17.16,17.16,0,0,0,8.75-15.007,11.568,11.568,0,0,0-.2-2.241A1.146,1.146,0,0,0,282.549,211.48Z" transform="translate(-248.87 -197.022)" fill="#167ee6"/>
  <path id="Path_466" data-name="Path 466" d="M49.559,339.178a10.65,10.65,0,0,1-9.214-5.331l-5.934,3.42a17.486,17.486,0,0,0,23.9,6.414v-.008l-3.428-5.934A10.572,10.572,0,0,1,49.559,339.178Z" transform="translate(-32.059 -311.025)" fill="#12b347"/>
  <path id="Path_467" data-name="Path 467" d="M264.75,396.721v-.008l-3.428-5.934A10.573,10.573,0,0,1,256,392.218v6.848A17.47,17.47,0,0,0,264.75,396.721Z" transform="translate(-238.5 -364.066)" fill="#0f993e"/>
  <path id="Path_468" data-name="Path 468" d="M6.848,136.861a10.573,10.573,0,0,1,1.438-5.322l-5.934-3.42a17.42,17.42,0,0,0,0,17.484l5.934-3.42A10.573,10.573,0,0,1,6.848,136.861Z" transform="translate(0 -119.361)" fill="#ffd500"/>
  <path id="Path_469" data-name="Path 469" d="M49.559,6.848a10.6,10.6,0,0,1,6.763,2.428,1.137,1.137,0,0,0,1.53-.069l3.231-3.231a1.15,1.15,0,0,0-.066-1.682A17.462,17.462,0,0,0,34.411,8.758l5.934,3.42A10.65,10.65,0,0,1,49.559,6.848Z" transform="translate(-32.059)" fill="#ff4b26"/>
  <path id="Path_470" data-name="Path 470" d="M262.763,9.276a1.137,1.137,0,0,0,1.53-.069l3.231-3.231a1.15,1.15,0,0,0-.066-1.682A17.447,17.447,0,0,0,256,0V6.848A10.6,10.6,0,0,1,262.763,9.276Z" transform="translate(-238.5)" fill="#d93f21"/>
</svg>
