<svg xmlns="http://www.w3.org/2000/svg" width="32" height="32" viewBox="0 0 32 32">
  <g id="Group_793" data-name="Group 793" transform="translate(-1067 -181)">
    <circle id="Ellipse_21" data-name="Ellipse 21" cx="16" cy="16" r="16" transform="translate(1067 181)" fill="#1e0f3b"/>
    <path id="spotify" d="M16,0A16,16,0,1,0,32,16,16,16,0,0,0,16,0Zm6.963,23.22a1.094,1.094,0,0,1-1.5.393,16.106,16.106,0,0,0-8.478-1.881,21.03,21.03,0,0,0-4.4.581,1.094,1.094,0,0,1-.58-2.11,22.782,22.782,0,0,1,4.85-.656,21.36,21.36,0,0,1,4.672.338,15.769,15.769,0,0,1,5.038,1.839A1.094,1.094,0,0,1,22.963,23.22ZM25,19a1.3,1.3,0,0,1-1.773.465,19.078,19.078,0,0,0-10.042-2.228,24.916,24.916,0,0,0-5.209.688,1.3,1.3,0,0,1-.687-2.5,26.979,26.979,0,0,1,5.744-.777,25.306,25.306,0,0,1,5.534.4,18.681,18.681,0,0,1,5.967,2.178A1.3,1.3,0,0,1,25,19Zm1.25-3.841a1.582,1.582,0,0,1-.8-.217c-8.1-4.732-18.6-1.919-18.705-1.89A1.59,1.59,0,0,1,5.9,9.982a33.09,33.09,0,0,1,7.046-.953,31.046,31.046,0,0,1,6.788.491,22.912,22.912,0,0,1,7.319,2.672,1.59,1.59,0,0,1-.8,2.962Z" transform="translate(1067 181)" fill="#00d95f"/>
  </g>
</svg>
