<svg xmlns="http://www.w3.org/2000/svg" width="19.518" height="18.073" viewBox="0 0 19.518 18.073">
  <path id="Icon_metro-suitcase" data-name="Icon metro-suitcase" d="M22.571,23.857H5.945A1.446,1.446,0,0,1,4.5,22.411V13.736a36.811,36.811,0,0,0,7.229,2.735v.879a.722.722,0,0,0,.723.723h3.615a.723.723,0,0,0,.723-.723v-.879a36.832,36.832,0,0,0,7.229-2.735v8.675A1.446,1.446,0,0,1,22.571,23.857Zm-7.229-8.675a.723.723,0,0,1,.723.723v.723a.723.723,0,0,1-.723.723H13.174a.722.722,0,0,1-.723-.723V15.9a.722.722,0,0,1,.723-.723Zm1.446,0a.723.723,0,0,0-.723-.723H12.451a.722.722,0,0,0-.723.723v.648A36.21,36.21,0,0,1,4.5,13.013V10.122A1.446,1.446,0,0,1,5.945,8.676h4.337V7.23a1.446,1.446,0,0,1,1.446-1.446h5.06A1.446,1.446,0,0,1,18.234,7.23V8.676h4.337a1.446,1.446,0,0,1,1.446,1.446v2.892a36.231,36.231,0,0,1-7.229,2.816v-.648Zm0-7.229a.723.723,0,0,0-.723-.723H12.451a.722.722,0,0,0-.723.723v.723h5.06Z" transform="translate(-4.499 -5.784)" fill="#1e0f3b"/>
</svg>
